# xmcd
#
# Track frame offsets: 
#        150
#        17728
#        36703
#        54086
#        70685
#        87129
#        103688
#        118583
#        132288
#        152107
#        166906
#        182617
#        197083
#        210731
#        225028
#        238905
#        253899
#        270850
#        283798
#        299807
#
# Disc length: 4246 seconds
#
# Revision: 14
# Processed by: cddbd v1.5.2PL0 Copyright (c) Steve Scherf et al.
# Submitted via: ExactAudioCopyFreeDBPlugin 1.0
#
DISCID=1e109414
DTITLE=Kenny Rogers - 1998 - 20 Great Love Songs
DYEAR=1998
DGENRE=Country
TTITLE0=Lady
TTITLE1=She Believes In Me
TTITLE2=We've Got Tonight (Duet With Sheena Easton)
TTITLE3=Crazy
TTITLE4=You Decorated My Life
TTITLE5=Don't Fall In Love With A Dreamer (Duet With Kim Carnes)
TTITLE6=Share Your Love With Me
TTITLE7=What Are We Doin' In Love (Duet With Dottie West)
TTITLE8=Through The Years
TTITLE9=A Love Song
TTITLE10=I Don't Need You
TTITLE11=Love The World Away
TTITLE12=Every Time Two Fools Collide (Duet With Dottie West)
TTITLE13=Daytime Friends
TTITLE14=All I Ever Need Is You (Duet With Dottie West)
TTITLE15=Till I Can Make It On My Own (Duet With Dottie West)
TTITLE16=Desperado
TTITLE17=You Are So Beautiful
TTITLE18=Green Green Grass Of Home
TTITLE19=So In Love With You
EXTD=YEAR: 1998
EXTT0=1980
EXTT1=1978
EXTT2=1985 Duet with Sheena Easton
EXTT3=1985
EXTT4=1979
EXTT5=1980 Duet with Kim Carnes
EXTT6=1981
EXTT7=1981 Duet with Dottie West
EXTT8=1981
EXTT9=1982
EXTT10=1981
EXTT11=1980
EXTT12=1978 Duet with Dottie West
EXTT13=1982
EXTT14=1979 Duet with Dottie West
EXTT15=1979 Duet with Dottie West
EXTT16=1977
EXTT17=1983
EXTT18=1977
EXTT19=1981
PLAYORDER=
